# xmcd
#
# Track frame offsets:
# 150
# 14310
# 30276
# 45387
# 57699
# 72936
# 87722
# 100659
# 121255
# 137852
# 155410
# 170194
#
# Disc length: 2462 seconds
#
#
# Revision: 0
# Processed by: cddbd v1.5.1PL2 Copyright (c) Steve Scherf et al.
# Submitted via: FreeRIP 2.944 
#
DISCID=a1099c0c
DTITLE=Derailers - Here Comes The Derailers
DYEAR=2001
DGENRE=Country
TTITLE0=More of Your Love
TTITLE1=Bar Exam
TTITLE2=You Know What She's Like
TTITLE3=Your Guess is as good as mine
TTITLE4=I See My Baby
TTITLE5=Country A Go-Go
TTITLE6=I'd Follow You Anywhere
TTITLE7=All the Rage In Paris
TTITLE8=My Angel's Gettin' Tired
TTITLE9=Mohair Sam
TTITLE10=If it's Really Got to Be This Way.mp3
TTITLE11=Mohair Sam
EXTD=
EXTT0=
EXTT1=
EXTT2=
EXTT3=
EXTT4=
EXTT5=
EXTT6=
EXTT7=
EXTT8=
EXTT9=
EXTT10=
EXTT11=
PLAYORDER=
